<svg width="388" height="109" viewBox="0 0 388 109" fill="none" xmlns="http://www.w3.org/2000/svg">
<path d="M138.946 85.1504V98.8496H136.045V90.9704C136.045 90.7887 136.048 90.5912 136.055 90.3781C136.068 90.165 136.087 89.9487 136.113 89.7293L132.346 96.7717C132.229 96.991 132.07 97.1572 131.869 97.27C131.674 97.3828 131.45 97.4392 131.197 97.4392H130.749C130.496 97.4392 130.269 97.3828 130.068 97.27C129.873 97.1572 129.717 96.991 129.6 96.7717L125.833 89.7105C125.852 89.9362 125.869 90.1587 125.882 90.3781C125.895 90.5912 125.901 90.7887 125.901 90.9704V98.8496H123V85.1504H125.512C125.654 85.1504 125.778 85.1536 125.882 85.1598C125.992 85.1661 126.089 85.1849 126.174 85.2163C126.258 85.2476 126.333 85.2977 126.398 85.3667C126.469 85.4294 126.537 85.5203 126.602 85.6394L130.253 92.5876C130.383 92.8258 130.506 93.0734 130.623 93.3304C130.746 93.5874 130.863 93.8507 130.973 94.1202C131.083 93.8444 131.197 93.5749 131.314 93.3116C131.437 93.0484 131.567 92.7976 131.703 92.5594L135.344 85.6394C135.409 85.5203 135.474 85.4294 135.539 85.3667C135.61 85.2977 135.688 85.2476 135.773 85.2163C135.857 85.1849 135.951 85.1661 136.055 85.1598C136.165 85.1536 136.292 85.1504 136.435 85.1504H138.946Z" fill="#A3AAAF"/>
<path d="M154.249 93.6125L152.935 89.861C152.838 89.6228 152.734 89.3439 152.624 89.0242C152.513 88.6982 152.403 88.3472 152.293 87.9711C152.195 88.3535 152.091 88.7076 151.981 89.0336C151.871 89.3595 151.767 89.6416 151.669 89.8798L150.365 93.6125H154.249ZM159.477 98.8496H156.927C156.641 98.8496 156.411 98.7869 156.235 98.6615C156.06 98.5299 155.927 98.3638 155.836 98.1632L154.999 95.775H149.606L148.768 98.1632C148.697 98.3387 148.567 98.4985 148.379 98.6427C148.197 98.7806 147.97 98.8496 147.698 98.8496H145.127L150.618 85.1504H153.986L159.477 98.8496Z" fill="#A3AAAF"/>
<path d="M170.272 91.591C170.72 91.591 171.1 91.5377 171.411 91.4312C171.729 91.3183 171.989 91.1648 172.19 90.9704C172.391 90.7761 172.537 90.5505 172.628 90.2935C172.719 90.0302 172.765 89.7482 172.765 89.4473C172.765 88.8455 172.56 88.3754 172.151 88.0369C171.749 87.6985 171.123 87.5292 170.272 87.5292H168.948V91.591H170.272ZM177.262 98.8496H174.283C173.732 98.8496 173.336 98.649 173.096 98.2478L170.74 94.2707C170.629 94.1014 170.506 93.9792 170.37 93.904C170.233 93.8225 170.039 93.7817 169.786 93.7817H168.948V98.8496H165.658V85.1504H170.272C171.298 85.1504 172.171 85.2539 172.891 85.4607C173.618 85.6613 174.209 85.9434 174.663 86.3069C175.124 86.6705 175.458 87.0998 175.666 87.595C175.873 88.0902 175.977 88.6293 175.977 89.2122C175.977 89.6573 175.915 90.0772 175.792 90.4721C175.669 90.867 175.487 91.2337 175.247 91.5722C175.007 91.9044 174.708 92.2021 174.351 92.4654C174.001 92.7287 173.595 92.9449 173.134 93.1142C173.349 93.2207 173.55 93.3555 173.738 93.5185C173.926 93.6752 174.095 93.8632 174.244 94.0826L177.262 98.8496Z" fill="#A3AAAF"/>
<path d="M186.807 90.6978H187.333C187.82 90.6978 188.17 90.5505 188.384 90.2559L191.577 85.7804C191.766 85.5422 191.967 85.3792 192.181 85.2915C192.402 85.1974 192.674 85.1504 192.999 85.1504H195.861L191.655 90.6884C191.357 91.0707 191.035 91.3465 190.691 91.5158C190.938 91.6035 191.162 91.7258 191.363 91.8825C191.564 92.0392 191.753 92.2429 191.928 92.4936L196.211 98.8496H193.271C193.083 98.8496 192.921 98.837 192.785 98.812C192.655 98.7869 192.541 98.7493 192.444 98.6991C192.346 98.649 192.262 98.5894 192.191 98.5205C192.119 98.4453 192.051 98.3606 191.986 98.2666L188.774 93.4997C188.657 93.3242 188.508 93.2019 188.326 93.133C188.151 93.0578 187.91 93.0201 187.605 93.0201H186.807V98.8496H183.517V85.1504H186.807V90.6978Z" fill="#A3AAAF"/>
<path d="M205.636 87.595V90.7918H210.095V93.1424H205.636V96.405H211.458V98.8496H202.326V85.1504H211.458V87.595H205.636Z" fill="#A3AAAF"/>
<path d="M228.743 87.6702H224.751V98.8496H221.461V87.6702H217.469V85.1504H228.743V87.6702Z" fill="#A3AAAF"/>
<path d="M247.766 87.595V91.0645H252.614V93.5185H247.766V98.8496H244.456V85.1504H253.588V87.595H247.766Z" fill="#A3AAAF"/>
<path d="M274.335 91.9953C274.335 92.9857 274.156 93.9071 273.799 94.7596C273.449 95.612 272.953 96.3548 272.31 96.9879C271.667 97.6147 270.892 98.1068 269.983 98.4641C269.081 98.8214 268.078 99 266.975 99C265.872 99 264.866 98.8214 263.957 98.4641C263.049 98.1068 262.27 97.6147 261.621 96.9879C260.978 96.3548 260.478 95.612 260.121 94.7596C259.771 93.9071 259.596 92.9857 259.596 91.9953C259.596 91.0049 259.771 90.0835 260.121 89.231C260.478 88.3786 260.978 87.6389 261.621 87.0121C262.27 86.3853 263.049 85.8932 263.957 85.5359C264.866 85.1786 265.872 85 266.975 85C268.078 85 269.081 85.1818 269.983 85.5453C270.892 85.9026 271.667 86.3947 272.31 87.0215C272.953 87.6483 273.449 88.388 273.799 89.2404C274.156 90.0929 274.335 91.0112 274.335 91.9953ZM270.967 91.9953C270.967 91.3183 270.876 90.7103 270.694 90.1713C270.512 89.6259 270.249 89.1652 269.905 88.7891C269.568 88.413 269.153 88.1247 268.659 87.9241C268.166 87.7235 267.605 87.6232 266.975 87.6232C266.339 87.6232 265.771 87.7235 265.271 87.9241C264.778 88.1247 264.36 88.413 264.016 88.7891C263.678 89.1652 263.419 89.6259 263.237 90.1713C263.055 90.7103 262.964 91.3183 262.964 91.9953C262.964 92.6785 263.055 93.2928 263.237 93.8381C263.419 94.3772 263.678 94.8348 264.016 95.2109C264.36 95.587 264.778 95.8753 265.271 96.0759C265.771 96.2702 266.339 96.3674 266.975 96.3674C267.605 96.3674 268.166 96.2702 268.659 96.0759C269.153 95.8753 269.568 95.587 269.905 95.2109C270.249 94.8348 270.512 94.3772 270.694 93.8381C270.876 93.2928 270.967 92.6785 270.967 91.9953Z" fill="#A3AAAF"/>
<path d="M285.948 91.591C286.396 91.591 286.776 91.5377 287.087 91.4312C287.405 91.3183 287.665 91.1648 287.866 90.9704C288.067 90.7761 288.213 90.5505 288.304 90.2935C288.395 90.0302 288.44 89.7482 288.44 89.4473C288.44 88.8455 288.236 88.3754 287.827 88.0369C287.425 87.6985 286.798 87.5292 285.948 87.5292H284.624V91.591H285.948ZM292.938 98.8496H289.959C289.407 98.8496 289.012 98.649 288.771 98.2478L286.415 94.2707C286.305 94.1014 286.182 93.9792 286.046 93.904C285.909 93.8225 285.715 93.7817 285.461 93.7817H284.624V98.8496H281.334V85.1504H285.948C286.974 85.1504 287.847 85.2539 288.567 85.4607C289.294 85.6613 289.884 85.9434 290.339 86.3069C290.8 86.6705 291.134 87.0998 291.341 87.595C291.549 88.0902 291.653 88.6293 291.653 89.2122C291.653 89.6573 291.591 90.0772 291.468 90.4721C291.345 90.867 291.163 91.2337 290.923 91.5722C290.683 91.9044 290.384 92.2021 290.027 92.4654C289.677 92.7287 289.271 92.9449 288.81 93.1142C289.024 93.2207 289.226 93.3555 289.414 93.5185C289.602 93.6752 289.771 93.8632 289.92 94.0826L292.938 98.8496Z" fill="#A3AAAF"/>
<path d="M315.576 91.7508H320.619V97.5332C319.892 98.0472 319.116 98.4202 318.292 98.6521C317.474 98.884 316.617 99 315.722 99C314.554 99 313.489 98.8245 312.529 98.4735C311.575 98.1162 310.757 97.6273 310.075 97.0067C309.394 96.3799 308.868 95.6403 308.498 94.7878C308.128 93.929 307.943 92.9982 307.943 91.9953C307.943 90.9736 308.119 90.0365 308.469 89.184C308.82 88.3253 309.319 87.5856 309.968 86.9651C310.624 86.3445 311.412 85.8619 312.334 85.5171C313.262 85.1724 314.297 85 315.44 85C316.03 85 316.585 85.047 317.104 85.141C317.623 85.2351 318.1 85.3636 318.535 85.5265C318.977 85.6895 319.379 85.8838 319.743 86.1095C320.106 86.3351 320.43 86.5796 320.716 86.8428L319.762 88.2438C319.613 88.4632 319.418 88.5979 319.178 88.6481C318.944 88.6982 318.691 88.6418 318.419 88.4788C318.159 88.3284 317.912 88.1999 317.679 88.0934C317.451 87.9805 317.218 87.8896 316.978 87.8207C316.738 87.7517 316.484 87.7016 316.218 87.6702C315.952 87.6389 315.654 87.6232 315.323 87.6232C314.706 87.6232 314.151 87.7298 313.658 87.9429C313.165 88.1498 312.743 88.4444 312.392 88.8267C312.048 89.2091 311.782 89.6698 311.594 90.2089C311.406 90.7417 311.312 91.3371 311.312 91.9953C311.312 92.7224 311.416 93.368 311.623 93.9322C311.831 94.4963 312.123 94.9727 312.499 95.3613C312.882 95.7499 313.337 96.0477 313.862 96.2545C314.395 96.4551 314.982 96.5554 315.624 96.5554C316.02 96.5554 316.377 96.5178 316.695 96.4426C317.02 96.3674 317.335 96.2671 317.64 96.1417V94.0638H316.238C316.03 94.0638 315.868 94.0105 315.751 93.904C315.634 93.7974 315.576 93.6626 315.576 93.4997V91.7508Z" fill="#A3AAAF"/>
<path d="M331.204 87.595V90.7918H335.663V93.1424H331.204V96.405H337.026V98.8496H327.894V85.1504H337.026V87.595H331.204Z" fill="#A3AAAF"/>
<path d="M347.428 87.595V90.7918H351.886V93.1424H347.428V96.405H353.249V98.8496H344.118V85.1504H353.249V87.595H347.428Z" fill="#A3AAAF"/>
<path d="M363.632 90.6978H364.157C364.644 90.6978 364.995 90.5505 365.209 90.2559L368.402 85.7804C368.59 85.5422 368.791 85.3792 369.006 85.2915C369.226 85.1974 369.499 85.1504 369.823 85.1504H372.685L368.48 90.6884C368.181 91.0707 367.86 91.3465 367.516 91.5158C367.763 91.6035 367.987 91.7258 368.188 91.8825C368.389 92.0392 368.577 92.2429 368.752 92.4936L373.036 98.8496H370.096C369.908 98.8496 369.745 98.837 369.609 98.812C369.479 98.7869 369.366 98.7493 369.268 98.6991C369.171 98.649 369.087 98.5894 369.015 98.5205C368.944 98.4453 368.876 98.3606 368.811 98.2666L365.598 93.4997C365.481 93.3242 365.332 93.2019 365.15 93.133C364.975 93.0578 364.735 93.0201 364.43 93.0201H363.632V98.8496H360.341V85.1504H363.632V90.6978Z" fill="#A3AAAF"/>
<path d="M386.988 87.9335C386.89 88.0839 386.786 88.1968 386.676 88.272C386.572 88.3472 386.436 88.3848 386.267 88.3848C386.118 88.3848 385.956 88.3409 385.78 88.2532C385.612 88.1592 385.417 88.0557 385.196 87.9429C384.982 87.8301 384.735 87.7298 384.456 87.642C384.177 87.548 383.859 87.501 383.502 87.501C382.886 87.501 382.425 87.6295 382.12 87.8865C381.821 88.1372 381.672 88.4788 381.672 88.9113C381.672 89.1872 381.763 89.4159 381.945 89.5977C382.126 89.7795 382.363 89.9362 382.655 90.0678C382.954 90.1995 383.291 90.3217 383.668 90.4345C384.051 90.5411 384.44 90.6633 384.836 90.8012C385.232 90.9328 385.618 91.0895 385.995 91.2713C386.377 91.4531 386.715 91.685 387.007 91.9671C387.306 92.2492 387.546 92.5939 387.727 93.0013C387.909 93.4025 388 93.8883 388 94.4587C388 95.0918 387.886 95.6841 387.659 96.2357C387.432 96.7873 387.101 97.27 386.666 97.6837C386.238 98.0911 385.706 98.4139 385.07 98.6521C384.44 98.884 383.723 99 382.918 99C382.477 99 382.026 98.9561 381.565 98.8684C381.111 98.7806 380.669 98.6584 380.241 98.5017C379.813 98.3387 379.41 98.1475 379.034 97.9281C378.657 97.7088 378.33 97.4643 378.051 97.1948L379.024 95.7092C379.102 95.6026 379.203 95.5149 379.326 95.4459C379.456 95.3707 379.595 95.3331 379.745 95.3331C379.939 95.3331 380.134 95.3927 380.329 95.5118C380.53 95.6308 380.754 95.7625 381 95.9066C381.253 96.0508 381.542 96.1824 381.867 96.3015C382.191 96.4206 382.574 96.4802 383.016 96.4802C383.613 96.4802 384.077 96.3548 384.408 96.1041C384.739 95.8471 384.904 95.4428 384.904 94.8912C384.904 94.5715 384.813 94.3114 384.632 94.1108C384.45 93.9102 384.21 93.7441 383.911 93.6125C383.619 93.4809 383.285 93.3649 382.908 93.2646C382.532 93.1643 382.146 93.0546 381.75 92.9355C381.354 92.8102 380.968 92.6597 380.591 92.4842C380.215 92.3024 379.878 92.0674 379.579 91.779C379.287 91.4844 379.05 91.1209 378.868 90.6884C378.687 90.2496 378.596 89.7105 378.596 89.0712C378.596 88.5572 378.703 88.0557 378.917 87.5668C379.131 87.0779 379.446 86.6423 379.861 86.2599C380.277 85.8775 380.786 85.5735 381.39 85.3479C381.993 85.116 382.685 85 383.463 85C383.898 85 384.32 85.0345 384.729 85.1034C385.144 85.1661 385.537 85.2633 385.907 85.3949C386.277 85.5203 386.621 85.6738 386.939 85.8556C387.263 86.0311 387.552 86.2317 387.805 86.4574L386.988 87.9335Z" fill="#A3AAAF"/>
<path d="M80 40.5C69.3333 27.1667 48.4 0.8 48 0L12 57L80 40.5Z" fill="#5B5B5B"/>
<path d="M80 40.5L48 0L95.5 28L80 40.5Z" fill="#222222"/>
<path d="M95.5 28L80 40L95.5 80V28Z" fill="black"/>
<path d="M64 85.5L80 40.5L12 57L64 85.5Z" fill="#191919"/>
<path d="M95.5 80L64 85L80 40L95.5 80Z" fill="#4F4F4F"/>
<path d="M12 57L48 0L0 28L12 57Z" fill="#A9A9A9"/>
<path d="M12 56.5L0 28V81.5L12 56.5Z" fill="#747474"/>
<path d="M64 85.5L12 56.5L48.5 108.5L64 85.5Z" fill="#444444"/>
<path d="M48.5 108.5L12 56.5L0 81.5L48.5 108.5Z" fill="#2D2D2D"/>
<path d="M95.5 80L48.5 108.5L64 85L95.5 80Z" fill="#5C5C5C"/>
<path fill-rule="evenodd" clip-rule="evenodd" d="M0 81.5V28L48 0C48.3985 0.796934 69.1732 26.965 79.8769 40.3461L79.8774 40.3448L48 0L95.5 28V80L48.5 108.5L0 81.5Z" fill="url(#paint0_linear_1537_3776)" style="mix-blend-mode:screen"/>
<path d="M136.549 73.0002H122.949V14.7202H136.549V73.0002Z" fill="url(#paint1_linear_1537_3776)"/>
<path d="M198.473 25.4402H182.073V73.0002H168.553V25.4402H152.153V14.7202H198.473V25.4402Z" fill="url(#paint2_linear_1537_3776)"/>
<path d="M236.595 43.3201C240.115 43.3201 242.648 42.4801 244.195 40.8001C245.742 39.1201 246.515 36.7735 246.515 33.7601C246.515 32.4268 246.315 31.2135 245.915 30.1201C245.515 29.0268 244.902 28.0935 244.075 27.3201C243.275 26.5201 242.248 25.9068 240.995 25.4801C239.768 25.0535 238.302 24.8401 236.595 24.8401H229.555V43.3201H236.595ZM236.595 14.7201C240.702 14.7201 244.222 15.2135 247.155 16.2001C250.115 17.1601 252.542 18.4935 254.435 20.2001C256.355 21.9068 257.768 23.9201 258.675 26.2401C259.582 28.5601 260.035 31.0668 260.035 33.7601C260.035 36.6668 259.568 39.3335 258.635 41.7601C257.702 44.1868 256.275 46.2668 254.355 48.0001C252.435 49.7335 249.995 51.0935 247.035 52.0801C244.102 53.0401 240.622 53.5201 236.595 53.5201H229.555V73.0001H216.035V14.7201H236.595Z" fill="white"/>
<path d="M286.655 13.1201V73.0001H274.255V13.1201H286.655Z" fill="white"/>
<path d="M341.036 31.5201V73.0001H333.356C331.809 73.0001 330.796 72.3068 330.316 70.9201L329.596 68.5201C328.796 69.2935 327.969 70.0001 327.116 70.6401C326.262 71.2535 325.342 71.7868 324.356 72.2401C323.396 72.6668 322.342 73.0001 321.196 73.2401C320.076 73.5068 318.849 73.6401 317.516 73.6401C315.249 73.6401 313.236 73.2535 311.476 72.4801C309.742 71.6801 308.276 70.5735 307.076 69.1601C305.876 67.7468 304.969 66.0801 304.356 64.1601C303.742 62.2401 303.436 60.1335 303.436 57.8401V31.5201H315.836V57.8401C315.836 59.8935 316.302 61.4801 317.236 62.6001C318.169 63.7201 319.542 64.2801 321.356 64.2801C322.716 64.2801 323.982 64.0001 325.156 63.4401C326.356 62.8535 327.516 62.0668 328.636 61.0801V31.5201H341.036Z" fill="white"/>
<path d="M384.621 40.6001C384.301 41.1068 383.954 41.4668 383.581 41.6801C383.234 41.8935 382.781 42.0001 382.221 42.0001C381.634 42.0001 381.047 41.8801 380.461 41.6401C379.874 41.3735 379.234 41.0935 378.541 40.8001C377.874 40.5068 377.114 40.2401 376.261 40.0001C375.407 39.7335 374.434 39.6001 373.341 39.6001C371.767 39.6001 370.554 39.9068 369.701 40.5201C368.874 41.1068 368.461 41.9335 368.461 43.0001C368.461 43.7735 368.727 44.4135 369.261 44.9201C369.821 45.4268 370.554 45.8801 371.461 46.2801C372.367 46.6535 373.394 47.0135 374.541 47.3601C375.687 47.7068 376.861 48.0935 378.061 48.5201C379.261 48.9468 380.434 49.4535 381.581 50.0401C382.727 50.6001 383.754 51.3068 384.661 52.1601C385.567 52.9868 386.287 54.0001 386.821 55.2001C387.381 56.4001 387.661 57.8401 387.661 59.5201C387.661 61.5735 387.287 63.4668 386.541 65.2001C385.794 66.9335 384.674 68.4268 383.181 69.6801C381.714 70.9335 379.887 71.9068 377.701 72.6001C375.541 73.2935 373.047 73.6401 370.221 73.6401C368.807 73.6401 367.394 73.5068 365.981 73.2401C364.567 72.9735 363.194 72.6135 361.861 72.1601C360.554 71.7068 359.341 71.1735 358.221 70.5601C357.101 69.9201 356.141 69.2401 355.341 68.5201L358.221 63.9601C358.541 63.4268 358.941 63.0135 359.421 62.7201C359.927 62.4001 360.567 62.2401 361.341 62.2401C362.061 62.2401 362.701 62.4001 363.261 62.7201C363.847 63.0401 364.474 63.3868 365.141 63.7601C365.807 64.1335 366.581 64.4801 367.461 64.8001C368.367 65.1201 369.501 65.2801 370.861 65.2801C371.821 65.2801 372.634 65.1868 373.301 65.0001C373.967 64.7868 374.501 64.5068 374.901 64.1601C375.301 63.8135 375.594 63.4268 375.781 63.0001C375.967 62.5735 376.061 62.1335 376.061 61.6801C376.061 60.8535 375.781 60.1735 375.221 59.6401C374.661 59.1068 373.927 58.6535 373.021 58.2801C372.114 57.8801 371.074 57.5201 369.901 57.2001C368.754 56.8535 367.581 56.4668 366.381 56.0401C365.181 55.6135 363.994 55.1068 362.821 54.5201C361.674 53.9068 360.647 53.1468 359.741 52.2401C358.834 51.3068 358.101 50.1735 357.541 48.8401C356.981 47.5068 356.701 45.8935 356.701 44.0001C356.701 42.2401 357.034 40.5735 357.701 39.0001C358.394 37.4001 359.421 36.0001 360.781 34.8001C362.141 33.6001 363.847 32.6535 365.901 31.9601C367.954 31.2401 370.354 30.8801 373.101 30.8801C374.594 30.8801 376.034 31.0135 377.421 31.2801C378.834 31.5468 380.154 31.9201 381.381 32.4001C382.607 32.8801 383.727 33.4535 384.741 34.1201C385.754 34.7601 386.647 35.4668 387.421 36.2401L384.621 40.6001Z" fill="white"/>
<defs>
<linearGradient id="paint0_linear_1537_3776" x1="25.3156" y1="-25.3601" x2="135.413" y2="84.2648" gradientUnits="userSpaceOnUse">
<stop stop-color="#B72FEB"/>
<stop offset="0.510417" stop-color="#6A78EB"/>
</linearGradient>
<linearGradient id="paint1_linear_1537_3776" x1="142.969" y1="1.09821" x2="198.031" y2="81.8157" gradientUnits="userSpaceOnUse">
<stop stop-color="#B72FEB"/>
<stop offset="0.510417" stop-color="#6A78EB"/>
</linearGradient>
<linearGradient id="paint2_linear_1537_3776" x1="142.969" y1="1.09821" x2="198.031" y2="81.8157" gradientUnits="userSpaceOnUse">
<stop stop-color="#B72FEB"/>
<stop offset="0.510417" stop-color="#6A78EB"/>
</linearGradient>
</defs>
</svg>
