<svg width="307" height="145" viewBox="0 0 307 145" fill="none" xmlns="http://www.w3.org/2000/svg">
<path d="M18.4736 129.172V144.828H15.1128V135.823C15.1128 135.616 15.1165 135.39 15.124 135.146C15.1391 134.903 15.1616 134.656 15.1917 134.405L10.827 142.453C10.6917 142.704 10.5075 142.894 10.2744 143.023C10.0489 143.152 9.78946 143.216 9.49622 143.216H8.97743C8.68419 143.216 8.42104 143.152 8.18795 143.023C7.96239 142.894 7.78194 142.704 7.6466 142.453L3.28195 134.383C3.30451 134.641 3.3233 134.896 3.33834 135.146C3.35338 135.39 3.3609 135.616 3.3609 135.823V144.828H0V129.172H2.90977C3.07518 129.172 3.21804 129.176 3.33834 129.183C3.46616 129.19 3.57894 129.211 3.67668 129.247C3.77443 129.283 3.8609 129.34 3.93608 129.419C4.01879 129.491 4.09774 129.595 4.17292 129.731L8.40224 137.672C8.55262 137.944 8.69547 138.227 8.83081 138.52C8.97367 138.814 9.10901 139.115 9.23683 139.423C9.36465 139.108 9.49622 138.8 9.63156 138.499C9.77442 138.198 9.9248 137.912 10.0827 137.639L14.3007 129.731C14.3759 129.595 14.4511 129.491 14.5263 129.419C14.609 129.34 14.6992 129.283 14.797 129.247C14.8947 129.211 15.0037 129.19 15.124 129.183C15.2519 129.176 15.3985 129.172 15.5639 129.172H18.4736Z" fill="#A3AAAF"/>
<path d="M36.2021 138.843L34.6795 134.555C34.5667 134.283 34.4464 133.964 34.3186 133.599C34.1908 133.227 34.063 132.825 33.9351 132.396C33.8224 132.833 33.7021 133.237 33.5742 133.61C33.4464 133.982 33.3261 134.305 33.2133 134.577L31.7021 138.843H36.2021ZM42.2584 144.828H39.3036C38.9727 144.828 38.7058 144.756 38.5028 144.613C38.2998 144.463 38.1457 144.273 38.0404 144.044L37.0705 141.314H30.8224L29.8524 144.044C29.7697 144.244 29.6194 144.427 29.4013 144.592C29.1908 144.749 28.9276 144.828 28.6118 144.828H25.6344L31.9953 129.172H35.8975L42.2584 144.828Z" fill="#A3AAAF"/>
<path d="M54.7645 136.533C55.2833 136.533 55.7232 136.472 56.0841 136.35C56.4525 136.221 56.7532 136.045 56.9863 135.823C57.2194 135.601 57.3886 135.343 57.4938 135.05C57.5991 134.749 57.6517 134.426 57.6517 134.083C57.6517 133.395 57.4149 132.858 56.9412 132.471C56.475 132.084 55.7495 131.891 54.7645 131.891H53.2307V136.533H54.7645ZM62.8623 144.828H59.4111C58.772 144.828 58.3134 144.599 58.0352 144.14L55.3059 139.595C55.1781 139.402 55.0352 139.262 54.8773 139.176C54.7194 139.083 54.4938 139.036 54.2006 139.036H53.2307V144.828H49.4187V129.172H54.7645C55.9525 129.172 56.9638 129.29 57.7984 129.527C58.6405 129.756 59.3247 130.078 59.851 130.494C60.3848 130.909 60.772 131.4 61.0126 131.966C61.2532 132.532 61.3735 133.148 61.3735 133.814C61.3735 134.323 61.3021 134.803 61.1592 135.254C61.0164 135.705 60.8059 136.124 60.5277 136.511C60.2495 136.891 59.9036 137.231 59.4901 137.532C59.0841 137.833 58.6141 138.08 58.0803 138.273C58.3284 138.395 58.5615 138.549 58.7796 138.735C58.9976 138.914 59.1931 139.129 59.366 139.38L62.8623 144.828Z" fill="#A3AAAF"/>
<path d="M73.92 135.512H74.529C75.0929 135.512 75.4989 135.343 75.747 135.007L79.4463 129.892C79.6643 129.62 79.8974 129.433 80.1455 129.333C80.4012 129.226 80.7169 129.172 81.0929 129.172H84.4087L79.5365 135.501C79.1906 135.938 78.8185 136.253 78.42 136.447C78.7057 136.547 78.9651 136.687 79.1982 136.866C79.4312 137.045 79.6493 137.278 79.8523 137.564L84.8147 144.828H81.4087C81.1906 144.828 81.0027 144.814 80.8448 144.785C80.6944 144.756 80.5628 144.713 80.45 144.656C80.3372 144.599 80.2395 144.531 80.1568 144.452C80.0741 144.366 79.9951 144.269 79.92 144.162L76.1982 138.714C76.0628 138.513 75.8899 138.374 75.6794 138.295C75.4764 138.209 75.1982 138.166 74.8448 138.166H73.92V144.828H70.1079V129.172H73.92V135.512Z" fill="#A3AAAF"/>
<path d="M95.7332 131.966V135.619H100.899V138.306H95.7332V142.034H102.478V144.828H91.8986V129.172H102.478V131.966H95.7332Z" fill="#A3AAAF"/>
<path d="M122.502 132.052H117.878V144.828H114.066V132.052H109.442V129.172H122.502V132.052Z" fill="#A3AAAF"/>
<path d="M144.54 131.966V135.931H150.157V138.735H144.54V144.828H140.706V129.172H151.285V131.966H144.54Z" fill="#A3AAAF"/>
<path d="M175.32 136.995C175.32 138.126 175.113 139.18 174.7 140.154C174.294 141.128 173.719 141.977 172.974 142.7C172.23 143.417 171.331 143.979 170.279 144.388C169.234 144.796 168.072 145 166.794 145C165.516 145 164.35 144.796 163.298 144.388C162.245 143.979 161.343 143.417 160.591 142.7C159.846 141.977 159.267 141.128 158.854 140.154C158.448 139.18 158.245 138.126 158.245 136.995C158.245 135.863 158.448 134.81 158.854 133.835C159.267 132.861 159.846 132.016 160.591 131.3C161.343 130.583 162.245 130.021 163.298 129.612C164.35 129.204 165.516 129 166.794 129C168.072 129 169.234 129.208 170.279 129.623C171.331 130.032 172.23 130.594 172.974 131.31C173.719 132.027 174.294 132.872 174.7 133.846C175.113 134.82 175.32 135.87 175.32 136.995ZM171.418 136.995C171.418 136.221 171.313 135.526 171.102 134.91C170.892 134.287 170.587 133.76 170.189 133.33C169.798 132.901 169.316 132.571 168.745 132.342C168.173 132.113 167.523 131.998 166.794 131.998C166.057 131.998 165.399 132.113 164.82 132.342C164.249 132.571 163.764 132.901 163.365 133.33C162.974 133.76 162.674 134.287 162.463 134.91C162.252 135.526 162.147 136.221 162.147 136.995C162.147 137.775 162.252 138.478 162.463 139.101C162.674 139.717 162.974 140.24 163.365 140.67C163.764 141.099 164.249 141.429 164.82 141.658C165.399 141.88 166.057 141.991 166.794 141.991C167.523 141.991 168.173 141.88 168.745 141.658C169.316 141.429 169.798 141.099 170.189 140.67C170.587 140.24 170.892 139.717 171.102 139.101C171.313 138.478 171.418 137.775 171.418 136.995Z" fill="#A3AAAF"/>
<path d="M188.774 136.533C189.293 136.533 189.733 136.472 190.093 136.35C190.462 136.221 190.763 136.045 190.996 135.823C191.229 135.601 191.398 135.343 191.503 135.05C191.608 134.749 191.661 134.426 191.661 134.083C191.661 133.395 191.424 132.858 190.951 132.471C190.484 132.084 189.759 131.891 188.774 131.891H187.24V136.533H188.774ZM196.872 144.828H193.421C192.781 144.828 192.323 144.599 192.045 144.14L189.315 139.595C189.187 139.402 189.045 139.262 188.887 139.176C188.729 139.083 188.503 139.036 188.21 139.036H187.24V144.828H183.428V129.172H188.774C189.962 129.172 190.973 129.29 191.808 129.527C192.65 129.756 193.334 130.078 193.86 130.494C194.394 130.909 194.781 131.4 195.022 131.966C195.263 132.532 195.383 133.148 195.383 133.814C195.383 134.323 195.311 134.803 195.169 135.254C195.026 135.705 194.815 136.124 194.537 136.511C194.259 136.891 193.913 137.231 193.499 137.532C193.093 137.833 192.624 138.08 192.09 138.273C192.338 138.395 192.571 138.549 192.789 138.735C193.007 138.914 193.202 139.129 193.375 139.38L196.872 144.828Z" fill="#A3AAAF"/>
<path d="M223.097 136.715H228.939V143.324C228.097 143.911 227.199 144.337 226.244 144.602C225.297 144.867 224.304 145 223.266 145C221.913 145 220.68 144.799 219.567 144.398C218.462 143.99 217.515 143.431 216.725 142.722C215.936 142.006 215.327 141.16 214.898 140.186C214.469 139.205 214.255 138.141 214.255 136.995C214.255 135.827 214.458 134.756 214.864 133.782C215.27 132.8 215.849 131.955 216.601 131.246C217.36 130.537 218.274 129.985 219.342 129.591C220.417 129.197 221.616 129 222.939 129C223.624 129 224.266 129.054 224.868 129.161C225.469 129.269 226.022 129.415 226.526 129.602C227.037 129.788 227.503 130.01 227.924 130.268C228.345 130.526 228.721 130.805 229.052 131.106L227.947 132.707C227.774 132.958 227.548 133.112 227.27 133.169C227 133.227 226.706 133.162 226.391 132.976C226.09 132.804 225.804 132.657 225.533 132.535C225.27 132.406 225 132.302 224.721 132.224C224.443 132.145 224.15 132.088 223.842 132.052C223.533 132.016 223.188 131.998 222.804 131.998C222.09 131.998 221.447 132.12 220.875 132.363C220.304 132.6 219.815 132.936 219.409 133.373C219.011 133.81 218.703 134.337 218.484 134.953C218.266 135.562 218.157 136.242 218.157 136.995C218.157 137.826 218.278 138.563 218.518 139.208C218.759 139.853 219.097 140.397 219.533 140.842C219.977 141.286 220.503 141.626 221.112 141.862C221.729 142.092 222.409 142.206 223.154 142.206C223.612 142.206 224.026 142.163 224.394 142.077C224.77 141.991 225.135 141.877 225.488 141.733V139.359H223.864C223.624 139.359 223.436 139.298 223.3 139.176C223.165 139.054 223.097 138.9 223.097 138.714V136.715Z" fill="#A3AAAF"/>
<path d="M241.202 131.966V135.619H246.368V138.306H241.202V142.034H247.947V144.828H237.368V129.172H247.947V131.966H241.202Z" fill="#A3AAAF"/>
<path d="M259.997 131.966V135.619H265.163V138.306H259.997V142.034H266.742V144.828H256.163V129.172H266.742V131.966H259.997Z" fill="#A3AAAF"/>
<path d="M278.77 135.512H279.379C279.942 135.512 280.348 135.343 280.597 135.007L284.296 129.892C284.514 129.62 284.747 129.433 284.995 129.333C285.251 129.226 285.566 129.172 285.942 129.172H289.258L284.386 135.501C284.04 135.938 283.668 136.253 283.269 136.447C283.555 136.547 283.815 136.687 284.048 136.866C284.281 137.045 284.499 137.278 284.702 137.564L289.664 144.828H286.258C286.04 144.828 285.852 144.814 285.694 144.785C285.544 144.756 285.412 144.713 285.3 144.656C285.187 144.599 285.089 144.531 285.006 144.452C284.924 144.366 284.845 144.269 284.77 144.162L281.048 138.714C280.912 138.513 280.739 138.374 280.529 138.295C280.326 138.209 280.048 138.166 279.694 138.166H278.77V144.828H274.957V129.172H278.77V135.512Z" fill="#A3AAAF"/>
<path d="M305.827 132.353C305.714 132.525 305.594 132.653 305.466 132.739C305.346 132.825 305.188 132.868 304.992 132.868C304.82 132.868 304.632 132.818 304.429 132.718C304.233 132.61 304.008 132.492 303.752 132.363C303.504 132.234 303.218 132.12 302.895 132.019C302.571 131.912 302.203 131.858 301.789 131.858C301.075 131.858 300.541 132.005 300.188 132.299C299.842 132.585 299.669 132.976 299.669 133.47C299.669 133.785 299.774 134.047 299.985 134.255C300.196 134.462 300.47 134.641 300.808 134.792C301.154 134.942 301.545 135.082 301.981 135.211C302.425 135.333 302.876 135.472 303.335 135.63C303.793 135.78 304.241 135.959 304.677 136.167C305.12 136.375 305.511 136.64 305.85 136.962C306.195 137.285 306.474 137.679 306.684 138.144C306.895 138.603 307 139.158 307 139.81C307 140.533 306.868 141.21 306.605 141.841C306.342 142.471 305.959 143.023 305.455 143.496C304.959 143.961 304.342 144.33 303.605 144.602C302.876 144.867 302.045 145 301.113 145C300.602 145 300.079 144.95 299.545 144.85C299.019 144.749 298.508 144.61 298.011 144.43C297.515 144.244 297.049 144.026 296.613 143.775C296.177 143.524 295.797 143.245 295.474 142.937L296.602 141.239C296.692 141.117 296.808 141.017 296.951 140.938C297.102 140.852 297.263 140.809 297.436 140.809C297.662 140.809 297.887 140.877 298.113 141.013C298.346 141.15 298.605 141.3 298.891 141.465C299.184 141.63 299.519 141.78 299.895 141.916C300.271 142.052 300.714 142.12 301.226 142.12C301.917 142.12 302.455 141.977 302.838 141.69C303.222 141.397 303.414 140.935 303.414 140.304C303.414 139.939 303.308 139.642 303.098 139.412C302.887 139.183 302.609 138.993 302.263 138.843C301.925 138.692 301.538 138.56 301.102 138.445C300.665 138.331 300.218 138.205 299.759 138.069C299.301 137.926 298.853 137.754 298.417 137.553C297.981 137.346 297.59 137.077 297.244 136.747C296.906 136.411 296.632 135.995 296.421 135.501C296.211 135 296.105 134.383 296.105 133.653C296.105 133.065 296.229 132.492 296.477 131.934C296.726 131.375 297.09 130.877 297.571 130.44C298.053 130.003 298.643 129.655 299.342 129.398C300.041 129.133 300.842 129 301.744 129C302.248 129 302.737 129.039 303.211 129.118C303.692 129.19 304.147 129.301 304.575 129.451C305.004 129.595 305.402 129.77 305.771 129.978C306.147 130.178 306.481 130.408 306.774 130.666L305.827 132.353Z" fill="#A3AAAF"/>
<path d="M80 40.5C69.3333 27.1667 48.4 0.8 48 0L12 57L80 40.5Z" fill="#5B5B5B"/>
<path d="M80 40.5L48 0L95.5 28L80 40.5Z" fill="#222222"/>
<path d="M95.5 28L80 40L95.5 80V28Z" fill="black"/>
<path d="M64 85.5L80 40.5L12 57L64 85.5Z" fill="#191919"/>
<path d="M95.5 80L64 85L80 40L95.5 80Z" fill="#4F4F4F"/>
<path d="M12 57L48 0L0 28L12 57Z" fill="#A9A9A9"/>
<path d="M12 56.5L0 28V81.5L12 56.5Z" fill="#747474"/>
<path d="M64 85.5L12 56.5L48.5 108.5L64 85.5Z" fill="#444444"/>
<path d="M48.5 108.5L12 56.5L0 81.5L48.5 108.5Z" fill="#2D2D2D"/>
<path d="M95.5 80L48.5 108.5L64 85L95.5 80Z" fill="#5C5C5C"/>
<path fill-rule="evenodd" clip-rule="evenodd" d="M0 81.5V28L48 0C48.3985 0.796934 69.1732 26.965 79.8769 40.3461L79.8774 40.3448L48 0L95.5 28V80L48.5 108.5L0 81.5Z" fill="url(#paint0_linear_1537_3774)" style="mix-blend-mode:screen"/>
<path fill-rule="evenodd" clip-rule="evenodd" d="M122.352 50.2665H134.082V0H122.352V50.2665ZM173.346 9.246H187.491V0H147.54V9.246H161.685V50.2665H173.346V9.246ZM302.229 66.4542C302.62 66.1782 302.988 65.7642 303.333 65.2122L306.231 59.7957C305.334 58.9677 304.31 58.2317 303.16 57.5877C302.033 56.9207 300.814 56.3572 299.503 55.8972C298.192 55.4142 296.801 55.0577 295.329 54.8277C293.88 54.5747 292.385 54.4482 290.844 54.4482C288.084 54.4482 285.634 54.8737 283.495 55.7247C281.356 56.5527 279.551 57.6682 278.079 59.0712C276.607 60.4742 275.491 62.0727 274.732 63.8667C273.973 65.6607 273.594 67.5007 273.594 69.3867C273.594 71.7327 273.916 73.7107 274.56 75.3207C275.204 76.9077 276.043 78.2417 277.078 79.3227C278.136 80.3807 279.332 81.2432 280.666 81.9102C282 82.5542 283.369 83.1062 284.772 83.5662C286.175 84.0032 287.543 84.4057 288.877 84.7737C290.211 85.1417 291.396 85.5672 292.431 86.0502C293.489 86.5332 294.34 87.1427 294.984 87.8787C295.628 88.6147 295.95 89.5692 295.95 90.7422C295.95 92.7662 295.363 94.2497 294.19 95.1927C293.017 96.1127 291.373 96.5727 289.257 96.5727C287.693 96.5727 286.336 96.3542 285.186 95.9172C284.036 95.4802 283.012 94.9972 282.115 94.4682C281.241 93.9392 280.448 93.4562 279.735 93.0192C279.045 92.5822 278.355 92.3637 277.665 92.3637C277.136 92.3637 276.641 92.5017 276.181 92.7777C275.744 93.0307 275.388 93.3527 275.112 93.7437L271.662 99.1947C272.651 100.184 273.812 101.081 275.146 101.886C276.48 102.691 277.906 103.392 279.424 103.99C280.942 104.565 282.506 105.014 284.116 105.336C285.749 105.658 287.348 105.819 288.912 105.819C291.764 105.819 294.305 105.393 296.536 104.542C298.79 103.668 300.676 102.484 302.194 100.989C303.735 99.4707 304.908 97.6997 305.713 95.6757C306.518 93.6517 306.921 91.4782 306.921 89.1552C306.921 87.0622 306.599 85.2797 305.955 83.8077C305.311 82.3127 304.46 81.0477 303.402 80.0127C302.367 78.9777 301.171 78.1267 299.814 77.4597C298.48 76.7927 297.111 76.2177 295.708 75.7347C294.305 75.2287 292.925 74.7802 291.568 74.3892C290.234 73.9752 289.038 73.5267 287.98 73.0437C286.945 72.5607 286.106 71.9857 285.462 71.3187C284.818 70.6517 284.496 69.8122 284.496 68.8002C284.496 67.2132 285.025 65.9597 286.083 65.0397C287.164 64.0967 288.797 63.6252 290.982 63.6252C292.247 63.6252 293.374 63.7977 294.363 64.1427C295.352 64.4647 296.226 64.8327 296.985 65.2467C297.767 65.6607 298.457 66.0402 299.055 66.3852C299.676 66.7072 300.251 66.8682 300.78 66.8682C301.378 66.8682 301.861 66.7302 302.229 66.4542ZM146.288 77.4942C144.954 78.9432 142.769 79.6677 139.733 79.6677H133.661V63.7287H139.733C141.205 63.7287 142.47 63.9127 143.528 64.2807C144.609 64.6487 145.495 65.1777 146.185 65.8677C146.898 66.5347 147.427 67.3397 147.772 68.2827C148.117 69.2257 148.289 70.2722 148.289 71.4222C148.289 74.0212 147.622 76.0452 146.288 77.4942ZM148.841 56.2767C146.311 55.4257 143.275 55.0002 139.733 55.0002H122V105.267H133.661V88.4652H139.733C143.206 88.4652 146.208 88.0512 148.738 87.2232C151.291 86.3722 153.395 85.1992 155.051 83.7042C156.707 82.2092 157.938 80.4152 158.743 78.3222C159.548 76.2292 159.95 73.9292 159.95 71.4222C159.95 69.0992 159.559 66.9372 158.777 64.9362C157.995 62.9352 156.776 61.1987 155.12 59.7267C153.487 58.2547 151.394 57.1047 148.841 56.2767ZM203.747 105.267V95.9517H185.117V55.0002H173.456V105.267H203.747ZM237.263 96.0552C238.827 96.0552 240.219 95.8022 241.438 95.2962C242.68 94.7672 243.726 94.0197 244.577 93.0537C245.428 92.0877 246.072 90.9147 246.509 89.5347C246.969 88.1317 247.199 86.5447 247.199 84.7737V55.0002H258.86V84.7737C258.86 87.8557 258.354 90.6847 257.342 93.2607C256.353 95.8367 254.927 98.0562 253.064 99.9192C251.201 101.782 248.936 103.231 246.268 104.266C243.6 105.301 240.598 105.819 237.263 105.819C233.905 105.819 230.892 105.301 228.224 104.266C225.556 103.231 223.291 101.782 221.428 99.9192C219.565 98.0562 218.139 95.8367 217.15 93.2607C216.161 90.6847 215.666 87.8557 215.666 84.7737V55.0002H227.327V84.7392C227.327 86.5102 227.546 88.0972 227.983 89.5002C228.443 90.8802 229.098 92.0647 229.949 93.0537C230.8 94.0197 231.835 94.7672 233.054 95.2962C234.296 95.8022 235.699 96.0552 237.263 96.0552Z" fill="url(#paint1_linear_1537_3774)"/>
<defs>
<linearGradient id="paint0_linear_1537_3774" x1="25.3156" y1="-25.3601" x2="135.413" y2="84.2648" gradientUnits="userSpaceOnUse">
<stop stop-color="#B72FEB"/>
<stop offset="0.510417" stop-color="#6A78EB"/>
</linearGradient>
<linearGradient id="paint1_linear_1537_3774" x1="90.5195" y1="5.26661" x2="220.092" y2="169.937" gradientUnits="userSpaceOnUse">
<stop stop-color="#B72FEB"/>
<stop offset="0.527538" stop-color="#6A78EB"/>
<stop offset="1" stop-color="#2BC7E1"/>
</linearGradient>
</defs>
</svg>
