<?xml version="1.0" encoding="UTF-8"?>
<svg width="20px" height="20px" viewBox="0 0 20 20" version="1.1" xmlns="http://www.w3.org/2000/svg" xmlns:xlink="http://www.w3.org/1999/xlink">
    <title>Element/Icon/Template/01 Copy 9SVG</title>
    <defs>
        <linearGradient x1="50%" y1="0%" x2="50%" y2="100%" id="linearGradient-1">
            <stop stop-color="#00CDF8" offset="0%"></stop>
            <stop stop-color="#0066DD" offset="100%"></stop>
        </linearGradient>
    </defs>
    <g id="PWA" stroke="none" stroke-width="1" fill="none" fill-rule="evenodd">
        <g id="5.0-Product-Detail" transform="translate(-10.000000, -1234.000000)" fill="url(#linearGradient-1)">
            <g id="Group-15" transform="translate(0.000000, 1225.000000)">
                <g id="Element/Icon/Template/01-Copy-9" transform="translate(8.000000, 8.000000)">
                    <path d="M17.6,4.8 L14.4,4.8 L14.4,4 C14.4,2.6745166 13.3254834,1.6 12,1.6 C10.6745166,1.6 9.6,2.6745166 9.6,4 L9.6,4.8 L6.4,4.8 C4.19195748,4.80264489 2.40264489,6.59195748 2.4,8.8 L2.4,16.8 C2.40264489,19.0080425 4.19195748,20.7973551 6.4,20.8 L17.6,20.8 C19.8080425,20.7973551 21.5973551,19.0080425 21.6,16.8 L21.6,8.8 C21.5973551,6.59195748 19.8080425,4.80264489 17.6,4.8 Z M11.2,4 C11.2,3.5581722 11.5581722,3.2 12,3.2 C12.4418278,3.2 12.8,3.5581722 12.8,4 L12.8,5.6 C12.8,6.0418278 12.4418278,6.4 12,6.4 C11.5581722,6.4 11.2,6.0418278 11.2,5.6 L11.2,4 Z M20,16.8 C20,18.1254834 18.9254834,19.2 17.6,19.2 L6.4,19.2 C5.0745166,19.2 4,18.1254834 4,16.8 L4,8.8 C4,7.4745166 5.0745166,6.4 6.4,6.4 L9.7472,6.4 C10.0811291,7.35850364 10.9849937,8.00075637 12,8.00075637 C13.0150063,8.00075637 13.9188709,7.35850364 14.2528,6.4 L17.6,6.4 C18.9254834,6.4 20,7.4745166 20,8.8 L20,16.8 Z M10.4,9.6 L6.4,9.6 C5.9581722,9.6 5.6,9.9581722 5.6,10.4 L5.6,16.8 C5.6,17.2418278 5.9581722,17.6 6.4,17.6 L10.4,17.6 C10.8418278,17.6 11.2,17.2418278 11.2,16.8 L11.2,10.4 C11.2,9.9581722 10.8418278,9.6 10.4,9.6 Z M9.6,16 L7.2,16 L7.2,11.2 L9.6,11.2 L9.6,16 Z M18.4,13.6 C18.4,14.0418278 18.0418278,14.4 17.6,14.4 L13.6,14.4 C13.1581722,14.4 12.8,14.0418278 12.8,13.6 C12.8,13.1581722 13.1581722,12.8 13.6,12.8 L17.6,12.8 C18.0418278,12.8 18.4,13.1581722 18.4,13.6 Z M18.4,10.4 C18.4,10.8418278 18.0418278,11.2 17.6,11.2 L13.6,11.2 C13.1581722,11.2 12.8,10.8418278 12.8,10.4 C12.8,9.9581722 13.1581722,9.6 13.6,9.6 L17.6,9.6 C18.0418278,9.6 18.4,9.9581722 18.4,10.4 Z M16.8,16.8 C16.8,17.2418278 16.4418278,17.6 16,17.6 L13.6,17.6 C13.1581722,17.6 12.8,17.2418278 12.8,16.8 C12.8,16.3581722 13.1581722,16 13.6,16 L16,16 C16.4418278,16 16.8,16.3581722 16.8,16.8 Z" id="Shape"></path>
                </g>
            </g>
        </g>
    </g>
</svg>