<?xml version="1.0" encoding="UTF-8"?>
<svg width="18px" height="24px" viewBox="0 0 18 24" version="1.1" xmlns="http://www.w3.org/2000/svg" xmlns:xlink="http://www.w3.org/1999/xlink">
    <title>Element/Icon/Template/01 Copy 23</title>
    <defs>
        <linearGradient x1="50%" y1="0%" x2="50%" y2="100%" id="linearGradient-1">
            <stop stop-color="#00CDF8" offset="0%"></stop>
            <stop stop-color="#0066DD" offset="100%"></stop>
        </linearGradient>
    </defs>
    <g id="Website" stroke="none" stroke-width="1" fill="none" fill-rule="evenodd">
        <g id="3.0-Cart-Default" transform="translate(-1088.000000, -419.000000)" fill="url(#linearGradient-1)">
            <g id="Group-3" transform="translate(1066.000000, 404.000000)">
                <g id="Element/Icon/Template/01-Copy-23" transform="translate(16.000000, 12.000000)">
                    <path d="M19,3 C21.7600532,3.00330612 23.9966939,5.23994685 24,8 L24,8 L24,26 C23.9990913,26.3701505 23.7937915,26.7095227 23.4663558,26.882144 C23.1389201,27.0547652 22.7429136,27.0323965 22.437,26.824 L22.437,26.824 L20.337,25.387 L18.237,26.825 C17.8962077,27.0586689 17.4467923,27.0586689 17.106,26.825 L17.106,26.825 L15.006,25.386 L12.906,26.825 C12.5654315,27.0582121 12.1165685,27.0582121 11.776,26.825 L11.776,26.825 L9.67,25.386 L7.564,26.825 C7.25791011,27.034058 6.86129105,27.0566545 6.53343768,26.8837139 C6.20558431,26.7107733 6.00028711,26.3706699 6,26 L6,26 L6,8 C6.00330612,5.23994685 8.23994685,3.00330612 11,3 L11,3 Z M19,5 L11,5 C9.34314575,5 8,6.34314575 8,8 L8,8 L8,24.1 L9.108,23.348 C9.44834442,23.1152441 9.89665558,23.1152441 10.237,23.348 L10.237,23.348 L12.337,24.787 L14.437,23.348 C14.7777923,23.1143311 15.2272077,23.1143311 15.568,23.348 L15.568,23.348 L17.668,24.787 L19.768,23.348 C20.1090159,23.1138737 20.5589841,23.1138737 20.9,23.348 L20.9,23.348 L22,24.1 L22,8 C22,6.34314575 20.6568542,5 19,5 L19,5 Z M17,15 C17.5522847,15 18,15.4477153 18,16 C18,16.5522847 17.5522847,17 17,17 L11,17 C10.4477153,17 10,16.5522847 10,16 C10,15.4477153 10.4477153,15 11,15 L17,15 Z M19,11 C19.5522847,11 20,11.4477153 20,12 C20,12.5522847 19.5522847,13 19,13 L11,13 C10.4477153,13 10,12.5522847 10,12 C10,11.4477153 10.4477153,11 11,11 L19,11 Z" id="Combined-Shape"></path>
                </g>
            </g>
        </g>
    </g>
</svg>