<?xml version="1.0" encoding="UTF-8"?>
<svg width="32px" height="32px" viewBox="0 0 32 32" version="1.1" xmlns="http://www.w3.org/2000/svg" xmlns:xlink="http://www.w3.org/1999/xlink">
    <title>Slice02 Copy 9@3x</title>
    <defs>
        <linearGradient x1="50%" y1="0%" x2="50%" y2="100%" id="linearGradient-1">
            <stop stop-color="#00CDF8" offset="0%"></stop>
            <stop stop-color="#0066DD" offset="100%"></stop>
        </linearGradient>
    </defs>
    <g id="Website" stroke="none" stroke-width="1" fill="none" fill-rule="evenodd">
        <g id="0.0-UI-Asset-Desktop" transform="translate(-246.000000, -608.000000)">
            <g id="Element/Icon/Template/01-Copy-9" transform="translate(246.000000, 608.000000)">
                <circle id="Oval" cx="16" cy="16" r="16"></circle>
                <g id="Element/Icon/Style/Default" transform="translate(4.000000, 4.000000)" fill="url(#linearGradient-1)">
                    <path d="M20.8968193,9.63810086 L14.8288193,3.56930086 C13.2651774,2.01023305 10.7348611,2.01023305 9.17121925,3.56930086 L3.10321925,9.63810086 C2.65144904,10.0869775 2.39820541,10.6980466 2.40000957,11.3349009 L2.40000957,19.1885009 C2.40000957,20.5139843 3.47453585,21.5885009 4.80001925,21.5885009 L19.2000193,21.5885009 C20.5255027,21.5885009 21.6000289,20.5139843 21.6000289,19.1885009 L21.6000289,11.3349009 C21.6018331,10.6980466 21.3485895,10.0869775 20.8968193,9.63810086 Z M14.4000193,19.9885009 L9.60001925,19.9885009 L9.60001925,16.8413009 C9.60001925,15.5158175 10.6745359,14.4413009 12.0000193,14.4413009 C13.3255027,14.4413009 14.4000193,15.5158175 14.4000193,16.8413009 L14.4000193,19.9885009 Z M20.0000193,19.1885009 C20.0000193,19.6303287 19.6418471,19.9885009 19.2000193,19.9885009 L16.0000193,19.9885009 L16.0000193,16.8413009 C16.0000193,14.6321619 14.2091583,12.8413009 12.0000193,12.8413009 C9.79088025,12.8413009 8.00001925,14.6321619 8.00001925,16.8413009 L8.00001925,19.9885009 L4.80001925,19.9885009 C4.35819145,19.9885009 4.00001925,19.6303287 4.00001925,19.1885009 L4.00001925,11.3349009 C4.00076099,11.1228843 4.08497053,10.9196892 4.23441925,10.7693009 L10.3024193,4.70290086 C11.2412588,3.76843982 12.7587797,3.76843982 13.6976193,4.70290086 L19.7656193,10.7717009 C19.9144866,10.9214979 19.9986487,11.1237167 20.0000193,11.3349009 L20.0000193,19.1885009 Z" id="Shape"></path>
                </g>
            </g>
        </g>
    </g>
</svg>