<?xml version="1.0" encoding="UTF-8"?>
<svg width="24px" height="24px" viewBox="0 0 24 24" version="1.1" xmlns="http://www.w3.org/2000/svg" xmlns:xlink="http://www.w3.org/1999/xlink">
    <title>Slice Copy 10@3x</title>
    <g id="Website" stroke="none" stroke-width="1" fill="none" fill-rule="evenodd">
        <g id="0.0-UI-Asset-Desktop" transform="translate(-57.000000, -415.000000)" fill="#777777">
            <g id="Element/Icon/Style/Trash" transform="translate(57.000000, 415.000000)">
                <path d="M12.8,2.4 C14.7000806,2.40239863 16.3372539,3.73886656 16.72,5.6 L16.72,5.6 L19.2,5.6 C19.6418278,5.6 20,5.9581722 20,6.4 C20,6.8418278 19.6418278,7.2 19.2,7.2 L19.2,7.2 L18.4,7.2 L18.4,17.6 C18.3973551,19.8080425 16.6080425,21.5973551 14.4,21.6 L14.4,21.6 L9.59999998,21.6 C7.39195746,21.5973551 5.60264487,19.8080425 5.59999998,17.6 L5.59999998,17.6 L5.59999998,7.2 L4.79999998,7.2 C4.35817219,7.19999999 4,6.84182779 4,6.4 C4,5.95817221 4.35817219,5.60000001 4.79999998,5.6 L4.79999998,5.6 L7.27999998,5.6 C7.6627461,3.73886656 9.29991931,2.40239863 11.2,2.4 L11.2,2.4 Z M16.8,7.2 L7.19999998,7.2 L7.19999998,17.6 C7.19999998,18.9254834 8.27451658,20 9.59999998,20 L9.59999998,20 L14.4,20 C15.7254834,20 16.8,18.9254834 16.8,17.6 L16.8,17.6 L16.8,7.2 Z M10.4,10.4 C10.8418278,10.4 11.2,10.7581722 11.2,11.2 L11.2,11.2 L11.2,16 C11.2,16.4418278 10.8418278,16.8 10.4,16.8 C9.95817218,16.8 9.59999998,16.4418278 9.59999998,16 L9.59999998,16 L9.59999998,11.2 C9.59999998,10.7581722 9.95817218,10.4 10.4,10.4 Z M13.6,10.4 C14.0418278,10.4 14.4,10.7581722 14.4,11.2 L14.4,11.2 L14.4,16 C14.4,16.4418278 14.0418278,16.8 13.6,16.8 C13.1581722,16.8 12.8,16.4418278 12.8,16 L12.8,16 L12.8,11.2 C12.8,10.7581722 13.1581722,10.4 13.6,10.4 Z M12.8,4 L11.2,4 C10.1832089,4.00124051 9.27708283,4.64183868 8.93679998,5.6 L8.93679998,5.6 L15.0632,5.6 C14.7229171,4.64183868 13.816791,4.00124051 12.8,4 L12.8,4 Z" id="Combined-Shape"></path>
            </g>
        </g>
    </g>
</svg>