<?xml version="1.0" encoding="UTF-8"?>
<svg width="24px" height="24px" viewBox="0 0 24 24" version="1.1" xmlns="http://www.w3.org/2000/svg" xmlns:xlink="http://www.w3.org/1999/xlink">
    <title>icon/general/retrySVG</title>
    <defs>
        <linearGradient x1="50%" y1="0%" x2="50%" y2="100%" id="linearGradient-1">
            <stop stop-color="#00CDF8" offset="0%"></stop>
            <stop stop-color="#0066DD" offset="100%"></stop>
        </linearGradient>
    </defs>
    <g id="Website" stroke="none" stroke-width="1" fill="none" fill-rule="evenodd">
        <g id="0.0-UI-Asset-Desktop" transform="translate(-730.000000, -1016.000000)">
            <g id="icon/general/retry" transform="translate(722.008746, 1008.000000)">
                <circle id="Oval" cx="20" cy="20" r="20"></circle>
                <g id="Element/Icon/Style/Default" transform="translate(5.000000, 5.000000)" fill="url(#linearGradient-1)">
                    <path d="M9.99999999,23 C11.1045695,23 12,23.8954305 12,25 C12,26.1045695 11.1045695,27 9.99999999,27 C8.89543049,27 7.99999999,26.1045695 7.99999999,25 C7.99999999,23.8954305 8.89543049,23 9.99999999,23 Z M20,23 C21.1045695,23 22,23.8954305 22,25 C22,26.1045695 21.1045695,27 20,27 C18.8954305,27 18,26.1045695 18,25 C18,23.8954305 18.8954305,23 20,23 Z M4.22199999,3 C5.74220379,3.0006475 7.02162953,4.13829671 7.19999999,5.648 L7.19999999,5.648 L7.24199999,6 L16,6 C16.5522847,6 17,6.44771525 17,7 C17,7.55228475 16.5522847,8 16,8 L16,8 L7.47799999,8 L8.41799999,16 L20.657,16 C22.1084725,15.999781 23.3516055,14.9604679 23.609,13.532 C23.6547202,13.2702624 23.8033262,13.037724 24.021648,12.8862891 C24.2399698,12.7348542 24.5098322,12.6771296 24.771,12.726 C25.0321531,12.7729838 25.2639259,12.9218344 25.4152851,13.1397766 C25.5666443,13.3577188 25.6251788,13.6268821 25.578,13.888 C25.1483718,16.2686211 23.0760777,18.0002352 20.657,18 L20.657,18 L8.72799999,18 C9.15185304,19.1988376 10.2854408,20.0002428 11.557,20 L11.557,20 L22,20 C22.5522847,20 23,20.4477153 23,21 C23,21.5522847 22.5522847,22 22,22 L22,22 L11.557,22 C9.02106568,22 6.88668992,20.1016366 6.59099999,17.583 L6.59099999,17.583 L5.21499999,5.883 C5.15568393,5.37950711 4.72897481,5.00006688 4.22199999,5 L4.22199999,5 L4,5 C3.44771524,5 3,4.55228474 3,4 C3,3.44771526 3.44771524,3 4,3 L4,3 Z M23,3 C23.5522847,3 24,3.44771525 24,4 L24,4 L24,6 L26,6 C26.5522847,6 27,6.44771525 27,7 C27,7.55228475 26.5522847,8 26,8 L26,8 L24,8 L24,10 C24,10.5522847 23.5522847,11 23,11 C22.4477152,11 22,10.5522847 22,10 L22,10 L22,8 L20,8 C19.4477152,8 19,7.55228475 19,7 C19,6.44771525 19.4477152,6 20,6 L20,6 L22,6 L22,4 C22,3.44771525 22.4477152,3 23,3 Z" id="Combined-Shape"></path>
                </g>
            </g>
        </g>
    </g>
</svg>